#!OML:ASF F:\VICON\USERDATA\INSTALL\rory3\rory3.ASF
:FULLY-SPECIFIED
:DEGREES
17
root -1.41618 17.6848 -22.1585 5.2146 -2.1258 -2.99506
lowerback 14.4272 2.03061 4.94222
upperback -0.281216 3.62994 1.16727
thorax -8.18061 1.57285 -2.30387
lowerneck -17.4397 -5.18112 -1.98411
upperneck 14.9522 -6.97216 2.25243
head 7.61889 -3.21829 0.253877
rclavicle -2.5842e-015 3.97569e-015
rhumerus -24.6308 15.81 -93.9648
rradius 120.404
rwrist -23.1023
rhand -20.4885 51.7319
rfingers 7.12502
rthumb 5.8682 21.8331
lclavicle -2.5842e-015 3.97569e-015
lhumerus -64.4568 -8.27308 96.3241
lradius 91.6195
lwrist 35.0959
lhand -29.0653 2.69092
lfingers 7.12502
lthumb -2.41476 32.657
rfemur 2.69902 7.04138 29.9412
rtibia 41.2603
rfoot -6.28346 -7.15156
rtoes -21.9237
lfemur -49.7992 7.90936 -18.5203
ltibia 91.8946
lfoot 1.94256 -11.5715
ltoes -11.001
18
root -1.39994 17.7943 -21.6327 4.5206 -0.918307 -2.86859
lowerback 14.6539 1.74509 5.30207
upperback -0.00630653 3.30585 1.06831
thorax -8.0075 1.40901 -2.54922
lowerneck -17.5245 -5.24925 -1.90896
upperneck 14.9475 -7.10488 2.36997
head 7.63666 -3.2645 0.262393
rclavicle -1.25234e-014 3.97569e-016
rhumerus -23.5389 16.0892 -93.4522
rradius 121.009
rwrist -22.6902
rhand -20.6349 50.7006
rfingers 7.12502
rthumb 5.72686 20.798
lclavicle -1.25234e-014 3.97569e-016
lhumerus -64.9148 -7.33994 95.7502
lradius 91.918
lwrist 35.1134
lhand -29.1745 2.48979
lfingers 7.12502
lthumb -2.52025 32.4546
rfemur 5.65768 6.05805 29.8609
rtibia 38.8064
rfoot -0.872558 -5.97232
rtoes -19.9728
lfemur -49.2877 6.18319 -18.6349
ltibia 87.8255
lfoot 2.27847 -11.362
ltoes -9.37956
19
root -1.36763 17.9093 -21.0449 4.65751 -1.00212 -2.55432
lowerback 13.9658 1.9879 5.06671
upperback -0.231571 3.54877 0.994659
thorax -7.85245 1.53739 -2.51715
lowerneck -17.2123 -5.31151 -1.88221
upperneck 15.239 -7.18874 2.24512
head 7.67523 -3.31499 0.211335
rclavicle 3.8763e-015 2.62396e-014
rhumerus -23.2583 16.2875 -92.9327
rradius 121.324
rwrist -22.1524
rhand -19.5912 46.6273
rfingers 7.12502
rthumb 6.73444 16.7544
lclavicle 3.8763e-015 2.62396e-014
lhumerus -66.144 -6.17615 95.3981
lradius 92.42
lwrist 35.2409
lhand -28.7601 1.6837
lfingers 7.12502
lthumb -2.11999 31.6529
rfemur 7.89607 6.1563 29.152
rtibia 36.2381
rfoot 5.38716 -5.05334
rtoes -18.4119
lfemur -48.9576 5.6079 -19.1287
ltibia 83.3877
lfoot 2.16148 -10.9668
ltoes -8.96896
20
root -1.35007 18.0043 -20.5081 4.2001 0.151645 -2.31297
lowerback 15.9138 1.82205 4.78182
upperback -1.28393 3.45813 1.07516
thorax -10.1474 1.41572 -2.37366
lowerneck -16.9222 -5.45151 -1.93189
upperneck 16.4375 -7.37443 2.03104
head 8.02042 -3.41471 0.116622
rclavicle -4.34841e-014 -3.10104e-014
rhumerus -24.5934 16.1422 -92.779
rradius 121.586
rwrist -21.0084
rhand -19.4436 45.9717
rfingers 7.12502
rthumb 6.87694 16.1034
lclavicle -4.34841e-014 -3.10104e-014
lhumerus -68.667 -5.19637 95.277
lradius 93.1832
lwrist 35.1734
lhand -28.628 0.94686
lfingers 7.12502
lthumb -1.9924 30.9173
rfemur 10.5746 5.43355 28.9169
rtibia 33.6077
rfoot 11.8421 -5.43149
rtoes -16.9373
lfemur -48.2425 3.99043 -19.3428
ltibia 78.7607
lfoot 1.47807 -10.8887
ltoes -11.2123
21
root -1.32221 18.0922 -19.9517 3.87874 1.04475 -2.11005
lowerback 15.5523 1.74825 4.99811
upperback -1.0325 3.35266 0.934761
thorax -9.64742 1.37054 -2.59971
lowerneck -17.3035 -5.60202 -1.79534
upperneck 16.5923 -7.62875 2.0979
head 8.14124 -3.51236 0.0727881
rclavicle 3.97569e-015 6.36111e-015
rhumerus -23.8169 15.8732 -92.1623
rradius 122.096
rwrist -21.0969
rhand -18.5116 44.1717
rfingers 7.12502
rthumb 7.77652 14.3347
lclavicle 3.97569e-015 6.36111e-015
lhumerus -69.0432 -4.60383 94.7406
lradius 93.824
lwrist 35.1695
lhand -28.3683 0.992719
lfingers 7.12502
lthumb -1.74164 30.9654
rfemur 13.2372 5.06826 28.7227
rtibia 30.9776
rfoot 16.4609 -6.31689
rtoes -17.4499
lfemur -47.3318 2.59039 -19.5439
ltibia 73.9808
lfoot 1.05443 -10.7547
ltoes -12.8498
22
root -1.28095 18.1853 -19.3435 3.06158 0.356086 -1.75237
lowerback 15.4309 2.16326 4.81729
upperback -0.692091 3.82876 0.747353
thorax -9.16305 1.62393 -2.79062
lowerneck -17.5443 -5.76854 -1.76218
upperneck 16.8655 -7.89709 2.21396
head 8.28431 -3.61728 0.0610194
rclavicle -3.91109e-014 -1.98785e-014
rhumerus -23.5839 15.9113 -91.7463
rradius 122.74
rwrist -21.0261
rhand -18.2433 41.4337
rfingers 7.12502
rthumb 8.03554 11.6064
lclavicle -3.91109e-014 -1.98785e-014
lhumerus -69.8129 -3.89202 94.2211
lradius 94.6544
lwrist 35.3286
lhand -27.935 0.816141
lfingers 7.12502
lthumb -1.32309 30.7918
rfemur 16.4542 6.04241 28.3054
rtibia 28.8534
rfoot 20.3746 -6.46265
rtoes -19.8887
lfemur -45.1303 2.71469 -19.9222
ltibia 68.9648
lfoot 0.600349 -10.563
ltoes -13.0077
23
root -1.17791 18.2796 -18.6438 3.18172 -1.55395 -1.45401
lowerback 13.1458 2.94735 5.22462
upperback -0.375833 4.75546 0.393762
thorax -7.38617 2.1211 -3.42333
lowerneck -17.4113 -5.90438 -1.75289
upperneck 17.0209 -8.12372 2.35336
head 8.32409 -3.70811 0.0784358
rclavicle -4.05024e-014 9.14409e-015
rhumerus -23.702 16.0985 -91.4968
rradius 122.528
rwrist -20.4491
rhand -18.809 43.2209
rfingers 7.12502
rthumb 7.48948 13.3735
lclavicle -4.05024e-014 9.14409e-015
lhumerus -70.8241 -3.07422 93.696
lradius 95.7052
lwrist 35.3924
lhand -27.6801 0.375366
lfingers 7.12502
lthumb -1.07694 30.3524
rfemur 18.3687 8.08948 27.2921
rtibia 27.5727
rfoot 24.808 -4.61042
rtoes -14.6771
lfemur -43.5551 2.97618 -20.4698
ltibia 63.8876
lfoot -0.0394421 -9.3878
ltoes -13.6716
24
root -1.18795 18.3151 -18.15 2.97102 -0.121768 -1.38365
lowerback 13.6894 2.65937 4.93974
upperback -0.571899 4.37224 0.424432
thorax -7.96389 1.92131 -3.20693
lowerneck -17.2973 -6.00358 -1.71195
upperneck 17.2967 -8.3446 2.63796
head 8.41394 -3.77604 0.136932
rclavicle 3.73218e-014 3.45885e-014
rhumerus -23.8306 16.1832 -91.2614
rradius 122.419
rwrist -20.5167
rhand -18.9559 44.0817
rfingers 7.12502
rthumb 7.34771 14.2293
lclavicle 3.73218e-014 3.45885e-014
lhumerus -71.7999 -2.40199 93.2076
lradius 96.9099
lwrist 35.3335
lhand -28.3452 0.443232
lfingers 7.12502
lthumb -1.71934 30.4161
rfemur 19.7005 8.33228 28.3434
rtibia 27.4507
rfoot 26.6881 -5.16247
rtoes -9.29047
lfemur -42.9056 1.58001 -20.3092
ltibia 58.6385
lfoot 0.579353 -10.3109
ltoes -13.1579
25
root -1.21522 18.3482 -17.6824 3.35739 1.67066 -1.33011
lowerback 14.1814 2.26299 4.44699
upperback -1.02681 3.8206 0.536239
thorax -8.82524 1.64214 -2.74941
lowerneck -17.4177 -6.11324 -1.7546
upperneck 17.5914 -8.54635 2.86825
head 8.55307 -3.8415 0.18556
rclavicle 4.28381e-014 2.46493e-014
rhumerus -24.0272 16.528 -91.1539
rradius 122.216
rwrist -20.516
rhand -19.5976 43.6312
rfingers 7.12502
rthumb 6.72829 13.7581
lclavicle 4.28381e-014 2.46493e-014
lhumerus -72.6174 -1.68863 92.7819
lradius 98.0529
lwrist 35.3813
lhand -28.3964 0.544084
lfingers 7.12502
lthumb -1.76873 30.5165
rfemur 19.7067 8.3703 29.5348
rtibia 28.5155
rfoot 27.5813 -5.87286
rtoes 0.870974
lfemur -42.6877 0.138592 -20.1188
ltibia 53.64
lfoot 0.772608 -11.8371
ltoes -14.0909
26
root -1.2262 18.3654 -17.1852 4.36566 2.7648 -1.65054
lowerback 13.6264 2.07642 4.48381
upperback -1.51659 3.57963 0.656581
thorax -9.06715 1.51448 -2.57739
lowerneck -17.5859 -6.2756 -1.65309
upperneck 17.7573 -8.79288 2.81849
head 8.63776 -3.94969 0.113245
rclavicle 3.98563e-014 2.14687e-014
rhumerus -24.4132 16.7316 -91.1812
rradius 121.963
rwrist -20.9598
rhand -19.2634 43.5093
rfingers 7.12502
rthumb 7.05094 13.6468
lclavicle 3.98563e-014 2.14687e-014
lhumerus -73.2889 -1.04779 92.4122
lradius 99.1454
lwrist 35.2498
lhand -27.5369 -0.0287752
lfingers 7.12502
lthumb -0.938676 29.9489
rfemur 18.6067 9.03177 30.8737
rtibia 30.5854
rfoot 27.7248 -6.38217
rtoes 9.84855
lfemur -43.0426 -0.7636 -19.5878
ltibia 48.6358
lfoot 1.44306 -13.2418
ltoes -14.2644
27
root -1.22729 18.3583 -16.6749 4.41297 3.21786 -2.02246
lowerback 13.7842 2.02978 4.60883
upperback -1.69035 3.56781 0.791974
thorax -9.3519 1.49451 -2.51291
lowerneck -17.5211 -6.36266 -1.82054
upperneck 17.8423 -8.93064 3.08068
head 8.68013 -3.99651 0.209209
rclavicle -1.65488e-014 1.66979e-014
rhumerus -25.0783 16.8749 -91.3137
rradius 121.479
rwrist -21.3942
rhand -18.8777 44.23
rfingers 7.12502
rthumb 7.4232 14.3802
lclavicle -1.65488e-014 1.66979e-014
lhumerus -73.984 -0.488117 92.1196
lradius 100.367
lwrist 34.9659
lhand -26.6483 -0.574315
lfingers 7.12502
lthumb -0.0804468 29.4054
rfemur 18.3528 9.66145 32.0785
rtibia 33.1243
rfoot 26.5687 -6.3086
rtoes 10.8431
lfemur -42.3381 -1.14726 -19.0948
ltibia 44.0153
lfoot 2.17057 -14.0147
ltoes -13.1743
